<?xml version="1.0" encoding="UTF-8"?>
<svg xmlns="http://www.w3.org/2000/svg" xmlns:xlink="http://www.w3.org/1999/xlink" width="668px" height="164px" viewBox="0 0 668 164" version="1.1">
<g id="surface1">
<path style=" stroke:none;fill-rule:nonzero;fill:rgb(20%,20%,20%);fill-opacity:1;" d="M 334 3.417969 C 149.464844 3.417969 0 39.496094 0 83.996094 C 0 119.605469 95.691406 149.800781 228.371094 160.445312 C 245.074219 161.207031 251.195312 158.710938 251.195312 156.570312 C 251.195312 154.660156 250.917969 149.589844 250.777344 142.871094 C 157.871094 147.730469 138.277344 132.0625 138.277344 132.0625 C 123.078125 122.761719 101.117188 120.273438 101.117188 120.273438 C 70.863281 115.277344 103.457031 115.378906 103.457031 115.378906 C 136.996094 115.941406 154.613281 123.683594 154.613281 123.683594 C 184.394531 136.003906 232.796875 132.445312 251.890625 130.386719 C 254.898438 125.171875 263.5 121.625 273.046875 119.609375 C 198.871094 117.59375 120.90625 110.664062 120.90625 79.792969 C 120.90625 71 133.851562 63.808594 155.28125 58.171875 C 151.523438 56.136719 140.253906 47.941406 158.203125 36.84375 C 158.203125 36.84375 186.175781 34.6875 250.054688 45.105469 C 276.773438 43.316406 305.164062 42.429688 333.554688 42.386719 C 361.945312 42.429688 390.335938 43.316406 417.054688 45.105469 C 480.515625 34.6875 508.488281 36.84375 508.488281 36.84375 C 526.441406 47.941406 515.167969 56.136719 511.828125 58.171875 C 533.121094 63.808594 546.0625 71 546.0625 79.792969 C 546.0625 110.746094 467.988281 117.5625 393.675781 119.542969 C 405.363281 121.960938 416.21875 126.902344 416.21875 134.453125 C 416.21875 145.234375 415.800781 153.898438 415.800781 156.515625 C 415.800781 158.628906 421.648438 161.152344 438.765625 160.34375 C 572.390625 149.765625 668 119.550781 668 83.996094 C 668 39.496094 518.453125 3.417969 334 3.417969 Z M 334 3.417969 "/>
</g>
</svg>
