<?xml version="1.0" encoding="UTF-8"?>
<svg xmlns="http://www.w3.org/2000/svg" xmlns:xlink="http://www.w3.org/1999/xlink" width="668px" height="164px" viewBox="0 0 668 164" version="1.1">
<g id="surface1">
<path style=" stroke:none;fill-rule:evenodd;fill:rgb(100%,100%,100%);fill-opacity:1;" d="M 78.75 0 L 115.300781 0 L 115.300781 118.820312 C 96.578125 121.332031 82.792969 122.320312 67.882812 122.320312 C 23.238281 122.285156 0 108.140625 0 80.972656 C 0 54.796875 24.648438 37.808594 62.847656 37.808594 C 68.777344 37.808594 73.292969 38.140625 78.75 39.132812 Z M 78.75 59.789062 C 74.46875 58.796875 70.941406 58.464844 66.421875 58.464844 C 47.9375 58.464844 37.257812 66.464844 37.257812 80.480469 C 37.257812 94.128906 47.464844 101.664062 66.1875 101.664062 C 70.234375 101.664062 73.527344 101.5 78.75 101.003906 Z M 173.398438 39.628906 L 173.398438 99.117188 C 173.398438 119.605469 171.234375 129.457031 164.882812 137.953125 C 158.957031 146.121094 151.148438 151.269531 135.011719 156.957031 L 101.09375 145.621094 C 117.230469 140.304688 125.039062 135.601562 130.023438 128.429688 C 135.246094 121.097656 136.894531 112.601562 136.894531 90.261719 L 136.894531 39.628906 Z M 136.894531 0.132812 L 173.445312 0.132812 L 173.445312 26.472656 L 136.894531 26.472656 Z M 195.457031 45.476562 C 211.597656 40.15625 227.027344 37.808594 243.867188 37.808594 C 262.636719 37.808594 274.957031 41.3125 280.417969 48.15625 C 283.476562 51.988281 284.464844 56.980469 284.464844 67.65625 L 284.464844 119.808594 C 268.097656 121.460938 247.441406 122.648438 232.289062 122.648438 C 201.664062 122.648438 187.929688 115.144531 187.929688 98.492188 C 187.929688 80.476562 206.1875 72.148438 251.011719 69.5 L 251.011719 63.851562 C 251.011719 59.191406 247.671875 57.503906 238.453125 57.503906 C 224.953125 57.503906 209.757812 60.183594 195.503906 65.335938 Z M 252.660156 86.292969 C 228.480469 87.945312 220.625 90.625 220.625 97.296875 C 220.625 102.292969 225.140625 104.636719 235.113281 104.636719 C 240.570312 104.636719 245.554688 104.308594 252.65625 103.480469 L 252.65625 86.292969 Z M 302.246094 43.625 C 323.839844 39.628906 341.617188 37.808594 359.632812 37.808594 C 378.355469 37.808594 391.910156 40.816406 399.949219 46.632812 C 407.519531 52.121094 409.925781 58.136719 409.925781 70.960938 L 409.925781 121.296875 L 373.371094 121.296875 L 373.371094 71.984375 C 373.371094 62.136719 368.617188 58.464844 355.59375 58.464844 C 350.601562 58.464844 346.089844 58.796875 338.75 60.316406 L 338.75 121.296875 L 302.246094 121.296875 Z M 424.132812 135.304688 C 436.921875 139.964844 449.722656 142.117188 463.273438 142.117188 C 487.214844 142.117188 497.425781 135.277344 497.425781 118.949219 L 497.425781 118.453125 C 490.320312 120.933594 483.167969 121.960938 473.710938 121.960938 C 441.679688 121.960938 421.308594 107.121094 421.308594 83.621094 C 421.308594 54.4375 451.464844 37.945312 504.808594 37.945312 C 520.476562 37.945312 534.964844 39.101562 552.507812 41.613281 L 539.992188 60.121094 C 530.265625 58.800781 539.195312 59.925781 531.859375 59.429688 L 531.859375 62.105469 L 532.332031 72.945312 L 532.5625 86.960938 C 532.800781 90.464844 532.800781 93.960938 533.039062 97.46875 L 533.039062 104.472656 C 533.039062 126.484375 530.402344 136.800781 522.59375 145.328125 C 511.207031 157.816406 491.503906 164 463.503906 164 C 449.253906 164 436.921875 162.507812 424.132812 159.003906 Z M 496.71875 58.632812 L 492.902344 58.632812 C 485.800781 58.464844 477.480469 59.789062 471.78125 62.300781 C 463.035156 65.804688 458.527344 72.148438 458.527344 81.140625 C 458.527344 93.960938 467.558594 101.300781 483.691406 101.300781 C 488.675781 101.300781 492.726562 100.640625 497.429688 99.648438 L 497.429688 90.789062 C 497.429688 87.78125 497.191406 84.445312 497.191406 80.941406 L 496.960938 69.109375 L 496.71875 60.613281 Z M 609.195312 37.480469 C 645.703125 37.480469 668 53.640625 668 79.816406 C 668 106.652344 644.765625 123.472656 607.734375 123.472656 C 571.183594 123.472656 548.644531 107.316406 548.644531 81.308594 C 548.707031 54.300781 571.941406 37.480469 609.195312 37.480469 Z M 608.445312 102.785156 C 622.464844 102.785156 630.742188 94.625 630.742188 80.445312 C 630.742188 66.429688 622.695312 58.101562 608.683594 58.101562 C 594.195312 58.101562 585.90625 66.265625 585.90625 80.445312 C 585.90625 94.625 594.238281 102.785156 608.445312 102.785156 Z M 608.445312 102.785156 "/>
</g>
</svg>
