<svg width="208" height="56" viewBox="0 0 208 56" fill="none" xmlns="http://www.w3.org/2000/svg">
<g clip-path="url(#clip0_3822_18156)">
<path fill-rule="evenodd" clip-rule="evenodd" d="M208.484 27.5676C208.484 29.3357 207.838 30.717 206.556 31.7075C205.267 32.6979 203.522 33.19 201.318 33.19C198.929 33.19 197.091 32.8802 195.806 32.2644V30.0061C196.634 30.3545 197.531 30.632 198.505 30.8325C199.479 31.035 200.443 31.1343 201.403 31.1343C202.964 31.1343 204.139 30.8386 204.93 30.2471C205.72 29.6598 206.115 28.8395 206.115 27.7843C206.115 27.0896 205.973 26.5164 205.697 26.0748C205.415 25.6293 204.944 25.2201 204.291 24.8414C203.633 24.4667 202.631 24.0393 201.291 23.5654C199.42 22.895 198.081 22.101 197.275 21.1856C196.472 20.2701 196.068 19.0731 196.068 17.5945C196.068 16.116 196.65 14.8117 197.817 13.8962C198.988 12.9807 200.53 12.5209 202.448 12.5209C204.366 12.5209 206.294 12.8875 207.974 13.6187L207.246 15.6502C205.582 14.9514 203.964 14.603 202.393 14.603C201.155 14.603 200.181 14.8704 199.487 15.401C198.787 15.9357 198.438 16.673 198.438 17.6209C198.438 18.3196 198.57 18.8888 198.824 19.3343C199.083 19.7799 199.516 20.1891 200.127 20.5597C200.737 20.9304 201.673 21.3395 202.933 21.7891C205.044 22.5405 206.497 23.3466 207.292 24.2115C208.088 25.0703 208.488 26.1923 208.488 27.5676H208.484ZM192.646 32.9085H181.422V12.8045H192.646V14.8886H183.763V21.3658H192.11V23.4216H183.763V30.8264H192.646V32.9105V32.9085ZM164.864 32.9085L158.027 15.0851H157.917C158.045 16.4988 158.11 18.1778 158.11 20.1202V32.9085H155.946V12.8045H159.474L165.856 29.3904H165.964L172.401 12.8045H175.9V32.9085H173.558V19.9561C173.558 18.4675 173.623 16.8532 173.75 15.1134H173.643L166.749 32.9085H164.862H164.864ZM147.522 24.4059L145.176 18.1778C144.876 17.39 144.561 16.4218 144.241 15.2775C144.04 16.1545 143.752 17.1226 143.372 18.1778L141.002 24.4059H147.524H147.522ZM150.757 32.9085L148.251 26.5164H140.172L137.694 32.9085H135.326L143.291 12.7194H145.262L153.184 32.9085H150.757ZM126.412 22.3785H133.26V32.1591C132.192 32.4974 131.111 32.7546 130.004 32.9288C128.905 33.1029 127.624 33.1921 126.177 33.1921C123.125 33.1921 120.75 32.2867 119.054 30.474C117.357 28.6633 116.505 26.1295 116.505 22.8626C116.505 20.7744 116.927 18.9434 117.765 17.3717C118.607 15.8 119.815 14.597 121.396 13.7686C122.977 12.9382 124.827 12.525 126.95 12.525C129.073 12.525 131.102 12.9199 132.955 13.7017L132.048 15.7616C130.228 14.9919 128.478 14.6071 126.8 14.6071C124.344 14.6071 122.431 15.3342 121.053 16.7945C119.675 18.2508 118.989 20.2721 118.989 22.8585C118.989 25.5705 119.652 27.6303 120.978 29.0339C122.305 30.4375 124.255 31.1363 126.826 31.1363C128.219 31.1363 129.582 30.9763 130.918 30.6522V24.4626H126.412V22.3785Z" fill="url(#paint0_linear_3822_18156)"/>
<path fill-rule="evenodd" clip-rule="evenodd" d="M112.016 32.9085H100.416V12.8045H112.016V16.2963H104.685V20.7177H111.502V24.2095H104.685V29.3904H112.016V32.9106V32.9085ZM91.8434 32.9085H87.5735V16.353H82.1043V12.8045H97.3126V16.353H91.8434V32.9085ZM74.7355 32.9085V12.8045H79.0054V32.9085H74.7355ZM72.2008 32.9085H67.3525L62.076 24.4383L60.2699 25.7285V32.9085H56V12.8045H60.2699V22.0038L61.9523 19.6382L67.4012 12.8045H72.1419L65.1222 21.702L72.1987 32.9085H72.2008Z" fill="white"/>
<path fill-rule="evenodd" clip-rule="evenodd" d="M23.9204 56L30.7128 47.0903L23.9204 40.0986L17.1279 47.0903L23.9204 56Z" fill="white"/>
<path fill-rule="evenodd" clip-rule="evenodd" d="M23.9206 0L0 24.6227L14.559 43.7201L23.9206 34.0833L33.2823 43.7201L47.8412 24.6227L23.9206 0Z" fill="url(#paint1_radial_3822_18156)"/>
<path d="M75.0423 48.156C74.2343 48.156 73.5463 47.972 72.9783 47.604C72.4183 47.236 72.0263 46.732 71.8022 46.092L72.9902 45.396C73.3263 46.34 74.0223 46.812 75.0783 46.812C75.5983 46.812 75.9863 46.712 76.2423 46.512C76.5063 46.304 76.6383 46.036 76.6383 45.708C76.6383 45.364 76.4983 45.104 76.2183 44.928C75.9383 44.744 75.4423 44.544 74.7303 44.328C74.3303 44.208 74.0063 44.096 73.7583 43.992C73.5103 43.888 73.2463 43.744 72.9663 43.56C72.6943 43.368 72.4903 43.132 72.3543 42.852C72.2183 42.572 72.1503 42.244 72.1503 41.868C72.1503 41.124 72.4143 40.536 72.9423 40.104C73.4703 39.664 74.1063 39.444 74.8503 39.444C75.5223 39.444 76.1103 39.608 76.6143 39.936C77.1183 40.264 77.5063 40.716 77.7783 41.292L76.6143 41.964C76.2623 41.18 75.6743 40.788 74.8503 40.788C74.4503 40.788 74.1303 40.884 73.8903 41.076C73.6503 41.26 73.5303 41.512 73.5303 41.832C73.5303 42.144 73.6503 42.392 73.8903 42.576C74.1383 42.752 74.5823 42.94 75.2223 43.14C75.5423 43.244 75.7743 43.324 75.9183 43.38C76.0703 43.428 76.2783 43.508 76.5423 43.62C76.8143 43.732 77.0183 43.844 77.1543 43.956C77.2903 44.068 77.4343 44.208 77.5863 44.376C77.7463 44.544 77.8583 44.736 77.9223 44.952C77.9863 45.168 78.0182 45.412 78.0182 45.684C78.0182 46.444 77.7423 47.048 77.1903 47.496C76.6463 47.936 75.9303 48.156 75.0423 48.156ZM100.363 39.6V40.92H97.9985V48H96.6185V40.92H94.2425V39.6H100.363ZM122.771 47.364C122.179 47.892 121.415 48.156 120.479 48.156C119.543 48.156 118.779 47.892 118.187 47.364C117.595 46.828 117.299 46.112 117.299 45.216V39.6H118.679V45.132C118.679 45.644 118.827 46.052 119.123 46.356C119.427 46.66 119.879 46.812 120.479 46.812C121.079 46.812 121.527 46.66 121.823 46.356C122.127 46.052 122.279 45.644 122.279 45.132V39.6H123.659V45.216C123.659 46.112 123.363 46.828 122.771 47.364ZM144.546 39.6C145.698 39.6 146.654 40.004 147.414 40.812C148.182 41.62 148.566 42.616 148.566 43.8C148.566 44.976 148.182 45.972 147.414 46.788C146.654 47.596 145.698 48 144.546 48H141.246V39.6H144.546ZM144.546 46.68C145.338 46.68 145.982 46.408 146.478 45.864C146.982 45.32 147.234 44.632 147.234 43.8C147.234 42.96 146.982 42.272 146.478 41.736C145.982 41.192 145.338 40.92 144.546 40.92H142.626V46.68H144.546ZM165.824 39.6H167.204V48H165.824V39.6ZM191.903 46.896C191.063 47.736 190.035 48.156 188.819 48.156C187.603 48.156 186.571 47.736 185.723 46.896C184.883 46.048 184.463 45.016 184.463 43.8C184.463 42.584 184.883 41.556 185.723 40.716C186.571 39.868 187.603 39.444 188.819 39.444C190.035 39.444 191.063 39.868 191.903 40.716C192.751 41.556 193.175 42.584 193.175 43.8C193.175 45.016 192.751 46.048 191.903 46.896ZM186.695 45.96C187.271 46.528 187.979 46.812 188.819 46.812C189.659 46.812 190.363 46.528 190.931 45.96C191.507 45.384 191.795 44.664 191.795 43.8C191.795 42.936 191.507 42.22 190.931 41.652C190.363 41.076 189.659 40.788 188.819 40.788C187.979 40.788 187.271 41.076 186.695 41.652C186.127 42.22 185.843 42.936 185.843 43.8C185.843 44.664 186.127 45.384 186.695 45.96Z" fill="white"/>
</g>
<defs>
<linearGradient id="paint0_linear_3822_18156" x1="162.495" y1="72.353" x2="162.495" y2="-26.638" gradientUnits="userSpaceOnUse">
<stop stop-color="#0F7030"/>
<stop offset="1" stop-color="#CFD617"/>
</linearGradient>
<radialGradient id="paint1_radial_3822_18156" cx="0" cy="0" r="1" gradientUnits="userSpaceOnUse" gradientTransform="translate(23.9206 0.437485) scale(39.9955 39.9164)">
<stop stop-color="#A3C811"/>
<stop offset="1" stop-color="#3B822F"/>
</radialGradient>
<clipPath id="clip0_3822_18156">
<rect width="208" height="56" fill="white"/>
</clipPath>
</defs>
</svg>
