<?xml version="1.0" encoding="UTF-8"?>
<svg xmlns="http://www.w3.org/2000/svg" xmlns:xlink="http://www.w3.org/1999/xlink" width="40px" height="40px" viewBox="0 0 40 40" version="1.1">
<g id="surface1">
<path style=" stroke:none;fill-rule:nonzero;fill:rgb(30.19608%,67.058825%,81.176472%);fill-opacity:1;" d="M 17.675781 10.171875 L 12.140625 7.378906 L 6.070312 10.410156 L 11.753906 13.261719 Z M 17.675781 10.171875 "/>
<path style=" stroke:none;fill-rule:nonzero;fill:rgb(30.19608%,67.058825%,81.176472%);fill-opacity:1;" d="M 20.210938 11.453125 L 26.011719 14.378906 L 19.992188 17.402344 L 14.300781 14.542969 Z M 20.210938 11.453125 "/>
<path style=" stroke:none;fill-rule:nonzero;fill:rgb(30.19608%,67.058825%,81.176472%);fill-opacity:1;" d="M 27.957031 7.421875 L 33.917969 10.410156 L 28.585938 13.085938 L 22.773438 10.152344 Z M 27.957031 7.421875 "/>
<path style=" stroke:none;fill-rule:nonzero;fill:rgb(30.19608%,67.058825%,81.176472%);fill-opacity:1;" d="M 25.394531 6.132812 L 20.027344 3.445312 L 14.722656 6.09375 L 20.25 8.878906 Z M 25.394531 6.132812 "/>
<path style=" stroke:none;fill-rule:nonzero;fill:rgb(30.19608%,67.058825%,81.176472%);fill-opacity:1;" d="M 21.199219 29.234375 L 21.199219 36.554688 L 27.699219 33.3125 L 27.691406 25.988281 Z M 21.199219 29.234375 "/>
<path style=" stroke:none;fill-rule:nonzero;fill:rgb(30.19608%,67.058825%,81.176472%);fill-opacity:1;" d="M 27.6875 23.433594 L 27.679688 16.1875 L 21.199219 19.40625 L 21.199219 26.65625 Z M 27.6875 23.433594 "/>
<path style=" stroke:none;fill-rule:nonzero;fill:rgb(30.19608%,67.058825%,81.176472%);fill-opacity:1;" d="M 35.492188 22.074219 L 35.492188 29.425781 L 29.945312 32.191406 L 29.941406 24.875 Z M 35.492188 22.074219 "/>
<path style=" stroke:none;fill-rule:nonzero;fill:rgb(30.19608%,67.058825%,81.176472%);fill-opacity:1;" d="M 35.492188 19.503906 L 35.492188 12.304688 L 29.9375 15.0625 L 29.941406 22.324219 Z M 35.492188 19.503906 "/>
<path style=" stroke:none;fill-rule:nonzero;fill:rgb(30.19608%,46.666667%,81.176472%);fill-opacity:1;" d="M 18.902344 19.40625 L 14.527344 17.207031 L 14.527344 26.71875 C 14.527344 26.71875 9.171875 15.328125 8.675781 14.304688 C 8.613281 14.171875 8.347656 14.027344 8.28125 13.992188 C 7.324219 13.488281 4.507812 12.066406 4.507812 12.066406 L 4.507812 28.871094 L 8.402344 30.953125 L 8.402344 22.167969 C 8.402344 22.167969 13.699219 32.34375 13.75 32.457031 C 13.804688 32.566406 14.335938 33.640625 14.90625 34.015625 C 15.660156 34.519531 18.90625 36.46875 18.90625 36.46875 Z M 18.902344 19.40625 "/>
</g>
</svg>
