<?xml version="1.0" encoding="UTF-8"?>
<svg xmlns="http://www.w3.org/2000/svg" xmlns:xlink="http://www.w3.org/1999/xlink" width="668px" height="164px" viewBox="0 0 668 164" version="1.1">
<g id="surface1">
<path style=" stroke:none;fill-rule:nonzero;fill:rgb(30.19608%,67.058825%,81.176472%);fill-opacity:1;" d="M 295.183594 41.703125 L 202.75 30.253906 L 101.375 42.679688 L 196.289062 54.375 Z M 295.183594 41.703125 "/>
<path style=" stroke:none;fill-rule:nonzero;fill:rgb(30.19608%,67.058825%,81.176472%);fill-opacity:1;" d="M 337.523438 46.957031 L 434.394531 58.953125 L 333.871094 71.351562 L 238.824219 59.625 Z M 337.523438 46.957031 "/>
<path style=" stroke:none;fill-rule:nonzero;fill:rgb(30.19608%,67.058825%,81.176472%);fill-opacity:1;" d="M 466.882812 30.429688 L 566.429688 42.679688 L 477.386719 53.652344 L 380.316406 41.625 Z M 466.882812 30.429688 "/>
<path style=" stroke:none;fill-rule:nonzero;fill:rgb(30.19608%,67.058825%,81.176472%);fill-opacity:1;" d="M 424.089844 25.144531 L 334.457031 14.125 L 245.867188 24.984375 L 338.175781 36.402344 Z M 424.089844 25.144531 "/>
<path style=" stroke:none;fill-rule:nonzero;fill:rgb(30.19608%,67.058825%,81.176472%);fill-opacity:1;" d="M 354.027344 119.859375 L 354.027344 149.875 L 462.578125 136.582031 L 462.445312 106.550781 Z M 354.027344 119.859375 "/>
<path style=" stroke:none;fill-rule:nonzero;fill:rgb(30.19608%,67.058825%,81.176472%);fill-opacity:1;" d="M 462.382812 96.078125 L 462.25 66.367188 L 354.027344 79.566406 L 354.027344 109.289062 Z M 462.382812 96.078125 "/>
<path style=" stroke:none;fill-rule:nonzero;fill:rgb(30.19608%,67.058825%,81.176472%);fill-opacity:1;" d="M 592.71875 90.503906 L 592.71875 120.644531 L 500.085938 131.984375 L 500.019531 101.988281 Z M 592.71875 90.503906 "/>
<path style=" stroke:none;fill-rule:nonzero;fill:rgb(30.19608%,67.058825%,81.176472%);fill-opacity:1;" d="M 592.71875 79.964844 L 592.71875 50.449219 L 499.957031 61.757812 L 500.019531 91.53125 Z M 592.71875 79.964844 "/>
<path style=" stroke:none;fill-rule:nonzero;fill:rgb(30.19608%,46.666667%,81.176472%);fill-opacity:1;" d="M 315.667969 79.566406 L 242.605469 70.546875 L 242.605469 109.546875 C 242.605469 109.546875 153.171875 62.84375 144.886719 58.648438 C 143.839844 58.105469 139.40625 57.511719 138.296875 57.367188 C 122.316406 55.300781 75.28125 49.472656 75.28125 49.472656 L 75.28125 118.371094 L 140.320312 126.90625 L 140.320312 90.890625 C 140.320312 90.890625 228.777344 132.609375 229.625 133.074219 C 230.539062 133.523438 239.410156 137.925781 248.933594 139.464844 C 261.523438 141.53125 315.734375 149.523438 315.734375 149.523438 Z M 315.667969 79.566406 "/>
</g>
</svg>
