<?xml version="1.0" encoding="UTF-8"?>
<svg xmlns="http://www.w3.org/2000/svg" xmlns:xlink="http://www.w3.org/1999/xlink" width="100px" height="60px" viewBox="0 0 100 60" version="1.1">
<g id="surface1">
<path style=" stroke:none;fill-rule:nonzero;fill:rgb(20%,20%,20%);fill-opacity:1;" d="M 50 1.25 C 22.375 1.25 0 14.449219 0 30.730469 C 0 43.757812 14.324219 54.804688 34.1875 58.699219 C 36.6875 58.976562 37.605469 58.066406 37.605469 57.28125 C 37.605469 56.582031 37.5625 54.726562 37.542969 52.269531 C 23.632812 54.046875 20.699219 48.316406 20.699219 48.316406 C 18.425781 44.914062 15.136719 44.003906 15.136719 44.003906 C 10.609375 42.175781 15.488281 42.210938 15.488281 42.210938 C 20.507812 42.417969 23.144531 45.25 23.144531 45.25 C 27.605469 49.757812 34.851562 48.457031 37.707031 47.703125 C 38.160156 45.792969 39.445312 44.496094 40.875 43.757812 C 29.769531 43.023438 18.101562 40.488281 18.101562 29.191406 C 18.101562 25.976562 20.039062 23.34375 23.246094 21.28125 C 22.683594 20.539062 20.996094 17.539062 23.683594 13.480469 C 23.683594 13.480469 27.871094 12.691406 37.433594 16.503906 C 41.433594 15.847656 45.683594 15.523438 49.933594 15.507812 C 54.183594 15.523438 58.433594 15.847656 62.433594 16.503906 C 71.933594 12.691406 76.121094 13.480469 76.121094 13.480469 C 78.808594 17.539062 77.121094 20.539062 76.621094 21.28125 C 79.808594 23.34375 81.746094 25.976562 81.746094 29.191406 C 81.746094 40.515625 70.058594 43.011719 58.933594 43.734375 C 60.683594 44.621094 62.308594 46.425781 62.308594 49.191406 C 62.308594 53.132812 62.246094 56.304688 62.246094 57.261719 C 62.246094 58.035156 63.121094 58.957031 65.683594 58.664062 C 85.6875 54.792969 100 43.738281 100 30.730469 C 100 14.449219 77.613281 1.25 50 1.25 Z M 50 1.25 "/>
</g>
</svg>
