<?xml version="1.0" encoding="UTF-8"?>
<svg xmlns="http://www.w3.org/2000/svg" xmlns:xlink="http://www.w3.org/1999/xlink" width="668px" height="164px" viewBox="0 0 668 164" version="1.1">
<defs>
<clipPath id="clip1">
  <path d="M 133.601562 41.226562 L 581.234375 41.226562 L 581.234375 126.558594 L 133.601562 126.558594 Z M 133.601562 41.226562 "/>
</clipPath>
</defs>
<g id="surface1">
<path style=" stroke:none;fill-rule:nonzero;fill:rgb(11.372549%,38.82353%,92.941177%);fill-opacity:1;" d="M 148.445312 3.019531 L 519.554688 3.019531 C 601.539062 3.019531 668 18.941406 668 38.578125 L 668 127.464844 C 668 147.101562 601.539062 163.019531 519.554688 163.019531 L 148.445312 163.019531 C 66.460938 163.019531 0 147.101562 0 127.464844 L 0 38.578125 C 0 18.941406 66.460938 3.019531 148.445312 3.019531 Z M 148.445312 3.019531 "/>
<g clip-path="url(#clip1)" clip-rule="nonzero">
<path style=" stroke:none;fill-rule:nonzero;fill:rgb(100%,100%,100%);fill-opacity:1;" d="M 573.953125 76.703125 C 562.980469 74.933594 534.140625 74.179688 513.175781 75.53125 C 512.046875 70.527344 501.277344 66.3125 481.578125 62.636719 L 474.289062 61.464844 L 469.429688 63.222656 C 459.875 66.695312 455.851562 71.324219 457.277344 75.53125 C 458.402344 78.121094 462.164062 81.035156 469.429688 83.148438 C 442.140625 86.9375 416.992188 86.078125 305.605469 86.078125 L 133.636719 86.078125 C 133.132812 92.101562 137.175781 103.691406 167.941406 113.125 C 171.339844 114.167969 175.070312 115.175781 179.109375 116.144531 C 204.125 122.144531 241.917969 126.546875 298.433594 126.558594 C 384.648438 126.578125 458.519531 115.414062 503.453125 88.425781 C 518.234375 88.484375 557.265625 89.058594 576.367188 80.21875 C 576.835938 80.070312 581.226562 77.875 581.226562 77.875 L 573.949219 76.703125 Z M 245.871094 70.488281 L 197.515625 70.488281 L 197.515625 82.070312 L 245.871094 82.070312 Z M 308.347656 70.488281 L 259.988281 70.488281 L 259.988281 82.070312 L 308.347656 82.070312 Z M 370.824219 70.488281 L 322.464844 70.488281 L 322.464844 82.070312 L 370.824219 82.070312 Z M 433.296875 70.488281 L 384.941406 70.488281 L 384.941406 82.070312 L 433.296875 82.070312 Z M 183.394531 70.488281 L 135.03125 70.488281 L 135.03125 82.070312 L 183.390625 82.070312 L 183.390625 70.488281 Z M 245.871094 55.855469 L 197.515625 55.855469 L 197.515625 67.4375 L 245.871094 67.4375 Z M 308.347656 55.855469 L 259.988281 55.855469 L 259.988281 67.4375 L 308.347656 67.4375 Z M 370.824219 55.855469 L 322.464844 55.855469 L 322.464844 67.4375 L 370.824219 67.4375 Z M 370.824219 41.226562 L 322.464844 41.226562 L 322.464844 52.808594 L 370.824219 52.808594 Z M 370.824219 41.226562 "/>
</g>
</g>
</svg>
