<?xml version="1.0" encoding="UTF-8"?>
<svg xmlns="http://www.w3.org/2000/svg" xmlns:xlink="http://www.w3.org/1999/xlink" width="100px" height="60px" viewBox="0 0 100 60" version="1.1">
<defs>
<clipPath id="clip1">
  <path d="M 20 15.082031 L 87.011719 15.082031 L 87.011719 46.300781 L 20 46.300781 Z M 20 15.082031 "/>
</clipPath>
</defs>
<g id="surface1">
<path style=" stroke:none;fill-rule:nonzero;fill:rgb(11.372549%,38.82353%,92.941177%);fill-opacity:1;" d="M 22.222656 1.105469 L 77.777344 1.105469 C 90.050781 1.105469 100 6.929688 100 14.113281 L 100 46.632812 C 100 53.816406 90.050781 59.640625 77.777344 59.640625 L 22.222656 59.640625 C 9.949219 59.640625 0 53.816406 0 46.632812 L 0 14.113281 C 0 6.929688 9.949219 1.105469 22.222656 1.105469 Z M 22.222656 1.105469 "/>
<g clip-path="url(#clip1)" clip-rule="nonzero">
<path style=" stroke:none;fill-rule:nonzero;fill:rgb(100%,100%,100%);fill-opacity:1;" d="M 85.921875 28.0625 C 84.277344 27.414062 79.960938 27.140625 76.824219 27.632812 C 76.652344 25.800781 75.042969 24.261719 72.09375 22.914062 L 71 22.488281 L 70.273438 23.128906 C 68.84375 24.402344 68.242188 26.09375 68.453125 27.632812 C 68.625 28.582031 69.1875 29.648438 70.273438 30.421875 C 66.1875 31.804688 62.425781 31.492188 45.75 31.492188 L 20.003906 31.492188 C 19.929688 33.695312 20.535156 37.9375 25.140625 41.386719 C 25.648438 41.769531 26.207031 42.136719 26.8125 42.492188 C 30.558594 44.6875 36.214844 46.296875 44.675781 46.300781 C 57.582031 46.308594 68.640625 42.226562 75.367188 32.351562 C 77.578125 32.371094 83.421875 32.582031 86.28125 29.347656 C 86.351562 29.292969 87.011719 28.492188 87.011719 28.492188 Z M 36.808594 25.789062 L 29.566406 25.789062 L 29.566406 30.027344 L 36.808594 30.027344 Z M 46.160156 25.789062 L 38.921875 25.789062 L 38.921875 30.027344 L 46.160156 30.027344 Z M 55.511719 25.789062 L 48.273438 25.789062 L 48.273438 30.027344 L 55.511719 30.027344 Z M 64.863281 25.789062 L 57.625 25.789062 L 57.625 30.027344 L 64.863281 30.027344 Z M 27.453125 25.789062 L 20.214844 25.789062 L 20.214844 30.027344 L 27.453125 30.027344 Z M 36.808594 20.433594 L 29.566406 20.433594 L 29.566406 24.671875 L 36.808594 24.671875 Z M 46.160156 20.433594 L 38.921875 20.433594 L 38.921875 24.671875 L 46.160156 24.671875 Z M 55.511719 20.433594 L 48.273438 20.433594 L 48.273438 24.671875 L 55.511719 24.671875 Z M 55.511719 15.082031 L 48.273438 15.082031 L 48.273438 19.320312 L 55.511719 19.320312 Z M 55.511719 15.082031 "/>
</g>
</g>
</svg>
