<?xml version="1.0" encoding="UTF-8"?>
<svg xmlns="http://www.w3.org/2000/svg" xmlns:xlink="http://www.w3.org/1999/xlink" width="668px" height="164px" viewBox="0 0 668 164" version="1.1">
<g id="surface1">
<path style=" stroke:none;fill-rule:nonzero;fill:rgb(100%,100%,100%);fill-opacity:1;" d="M 237.453125 98.640625 C 229.039062 98.640625 220.558594 96.542969 215.207031 92.410156 L 215.207031 114.6875 L 198.441406 114.6875 L 198.441406 59.691406 L 213.578125 59.691406 L 214.164062 65.742188 C 219.382812 61.082031 228.582031 58.632812 237.453125 58.632812 C 254.347656 58.632812 266.742188 67.234375 266.742188 78.636719 C 266.742188 90.039062 254.347656 98.640625 237.453125 98.640625 Z M 232.234375 66.175781 C 222.449219 66.175781 214.492188 70.835938 214.492188 78.636719 C 214.492188 86.453125 222.449219 91.113281 232.234375 91.113281 C 242.085938 91.113281 249.976562 86.453125 249.976562 78.652344 C 249.976562 70.835938 242.085938 66.175781 232.234375 66.175781 Z M 232.234375 66.175781 "/>
<path style=" stroke:none;fill-rule:nonzero;fill:rgb(100%,100%,100%);fill-opacity:1;" d="M 329.957031 97.597656 L 329.367188 91.546875 C 324.148438 96.191406 314.953125 98.65625 306.144531 98.640625 C 289.25 98.640625 276.789062 90.054688 276.789062 78.652344 C 276.789062 67.25 289.183594 58.632812 306.144531 58.648438 C 314.953125 58.648438 324.148438 61.117188 329.367188 65.742188 L 329.957031 59.707031 L 345.15625 59.707031 L 345.15625 97.597656 Z M 311.363281 66.191406 C 301.511719 66.191406 293.554688 70.835938 293.554688 78.652344 C 293.554688 86.453125 301.511719 91.113281 311.296875 91.113281 C 321.148438 91.113281 329.105469 86.453125 329.105469 78.652344 C 329.105469 70.835938 321.148438 66.191406 311.363281 66.191406 Z M 311.363281 66.191406 "/>
<path style=" stroke:none;fill-rule:nonzero;fill:rgb(100%,100%,100%);fill-opacity:1;" d="M 403.734375 97.597656 L 403.734375 76.632812 C 403.734375 69.265625 399.558594 66.816406 391.929688 66.816406 C 383.96875 66.816406 375.292969 71.1875 375.292969 76.457031 L 375.292969 97.597656 L 358.527344 97.597656 L 358.527344 59.707031 L 373.859375 59.707031 L 374.574219 66.722656 C 378.75 61.898438 388.144531 58.648438 397.667969 58.648438 C 414.304688 58.648438 420.5 65.679688 420.5 75.050781 L 420.5 97.597656 Z M 403.734375 97.597656 "/>
<path style=" stroke:none;fill-rule:nonzero;fill:rgb(100%,100%,100%);fill-opacity:1;" d="M 481.886719 97.617188 L 481.300781 91.5625 C 476.144531 96.207031 466.882812 98.65625 458.074219 98.65625 C 441.179688 98.65625 428.71875 90.054688 428.71875 78.652344 C 428.71875 67.25 441.179688 58.648438 458.074219 58.648438 C 466.425781 58.648438 474.972656 60.761719 480.320312 64.878906 L 480.320312 44.972656 L 497.085938 44.972656 L 497.085938 97.617188 Z M 463.292969 66.207031 C 453.507812 66.207031 445.550781 70.851562 445.550781 78.652344 C 445.550781 86.453125 453.445312 91.113281 463.292969 91.113281 C 473.078125 91.113281 481.039062 86.46875 481.039062 78.652344 C 481.039062 70.851562 473.144531 66.207031 463.292969 66.207031 Z M 463.292969 66.207031 "/>
<path style=" stroke:none;fill-rule:nonzero;fill:rgb(100%,100%,100%);fill-opacity:1;" d="M 560.035156 97.617188 L 559.449219 91.5625 C 554.230469 96.207031 544.96875 98.671875 536.160156 98.671875 C 519.265625 98.671875 506.871094 90.070312 506.871094 78.652344 C 506.871094 67.25 519.265625 58.664062 536.160156 58.664062 C 544.96875 58.664062 554.230469 61.132812 559.449219 65.777344 L 560.035156 59.722656 L 575.171875 59.722656 L 575.171875 97.617188 Z M 541.378906 66.207031 C 531.59375 66.207031 523.636719 70.851562 523.636719 78.667969 C 523.636719 86.46875 531.59375 91.113281 541.378906 91.113281 C 551.230469 91.113281 559.125 86.453125 559.125 78.652344 C 559.125 70.835938 551.230469 66.207031 541.378906 66.207031 Z M 541.378906 66.207031 "/>
<path style=" stroke:none;fill-rule:nonzero;fill:rgb(100%,100%,100%);fill-opacity:1;" d="M 612.289062 98.847656 C 603.484375 98.800781 594.871094 97.3125 587.304688 94.539062 L 590.042969 87.523438 C 595.132812 89.367188 602.765625 91.738281 612.027344 91.738281 C 618.617188 91.738281 623.25 90.519531 623.25 87.347656 C 623.25 84.640625 618.488281 83.664062 610.007812 82.449219 C 594.675781 80.429688 589.195312 75.515625 589.195312 70.164062 C 589.195312 64.191406 596.828125 58.585938 613.726562 58.585938 C 623.964844 58.585938 632.96875 61.308594 634.925781 61.996094 L 632.1875 68.675781 C 626.707031 66.671875 620.507812 65.585938 614.117188 65.519531 C 607.332031 65.519531 604.003906 66.914062 604.003906 69.203125 C 604.003906 71.734375 608.375 72.886719 615.03125 73.847656 C 631.46875 75.945312 638.121094 80.605469 638.121094 85.683594 C 638.121094 93.851562 628.335938 98.847656 612.289062 98.847656 Z M 612.289062 98.847656 "/>
<path style=" stroke:none;fill-rule:nonzero;fill:rgb(100%,100%,100%);fill-opacity:1;" d="M 61.386719 33.875 L 81.019531 33.875 L 81.019531 58.648438 L 61.386719 58.648438 Z M 61.386719 33.875 "/>
<path style=" stroke:none;fill-rule:nonzero;fill:rgb(100%,100%,100%);fill-opacity:1;" d="M 61.386719 84.753906 L 81.019531 84.753906 L 81.019531 109.53125 L 61.386719 109.53125 Z M 61.386719 84.753906 "/>
<path style=" stroke:none;fill-rule:nonzero;fill:rgb(100%,79.215688%,0%);fill-opacity:1;" d="M 61.386719 65.871094 L 81.019531 65.871094 L 81.019531 77.5625 L 61.386719 77.5625 Z M 61.386719 65.871094 "/>
<path style=" stroke:none;fill-rule:nonzero;fill:rgb(100%,100%,100%);fill-opacity:1;" d="M 29.878906 54.246094 L 49.511719 54.246094 L 49.511719 136.582031 L 29.878906 136.582031 Z M 29.878906 54.246094 "/>
<path style=" stroke:none;fill-rule:nonzero;fill:rgb(100%,100%,100%);fill-opacity:1;" d="M 92.308594 105.191406 L 111.941406 105.191406 L 111.941406 129.949219 L 92.308594 129.949219 Z M 92.308594 105.191406 "/>
<path style=" stroke:none;fill-rule:nonzero;fill:rgb(100%,100%,100%);fill-opacity:1;" d="M 92.308594 54.277344 L 111.941406 54.277344 L 111.941406 79.039062 L 92.308594 79.039062 Z M 92.308594 54.277344 "/>
<path style=" stroke:none;fill-rule:nonzero;fill:rgb(90.588236%,1.568628%,53.333336%);fill-opacity:1;" d="M 92.308594 86.277344 L 111.941406 86.277344 L 111.941406 97.953125 L 92.308594 97.953125 Z M 92.308594 86.277344 "/>
<path style=" stroke:none;fill-rule:nonzero;fill:rgb(100%,100%,100%);fill-opacity:1;" d="M 123.164062 27.417969 L 142.796875 27.417969 L 142.796875 109.753906 L 123.164062 109.753906 Z M 123.164062 27.417969 "/>
</g>
</svg>
