<?xml version="1.0" encoding="UTF-8"?>
<svg xmlns="http://www.w3.org/2000/svg" xmlns:xlink="http://www.w3.org/1999/xlink" width="40px" height="40px" viewBox="0 0 40 40" version="1.1">
<g id="surface1">
<path style=" stroke:none;fill-rule:nonzero;fill:rgb(100%,100%,100%);fill-opacity:1;" d="M 14.21875 24.058594 C 13.714844 24.058594 13.207031 23.546875 12.886719 22.539062 L 12.886719 27.972656 L 11.882812 27.972656 L 11.882812 14.558594 L 12.789062 14.558594 L 12.824219 16.035156 C 13.136719 14.898438 13.6875 14.300781 14.21875 14.300781 C 15.230469 14.300781 15.972656 16.398438 15.972656 19.179688 C 15.972656 21.960938 15.230469 24.058594 14.21875 24.058594 Z M 13.90625 16.140625 C 13.320312 16.140625 12.84375 17.277344 12.84375 19.179688 C 12.84375 21.085938 13.320312 22.222656 13.90625 22.222656 C 14.496094 22.222656 14.96875 21.085938 14.96875 19.183594 C 14.96875 17.277344 14.496094 16.140625 13.90625 16.140625 Z M 13.90625 16.140625 "/>
<path style=" stroke:none;fill-rule:nonzero;fill:rgb(100%,100%,100%);fill-opacity:1;" d="M 19.757812 23.804688 L 19.722656 22.328125 C 19.410156 23.460938 18.859375 24.0625 18.332031 24.058594 C 17.320312 24.058594 16.574219 21.964844 16.574219 19.183594 C 16.574219 16.402344 17.316406 14.300781 18.332031 14.304688 C 18.859375 14.304688 19.410156 14.90625 19.722656 16.035156 L 19.757812 14.5625 L 20.667969 14.5625 L 20.667969 23.804688 Z M 18.644531 16.144531 C 18.054688 16.144531 17.578125 17.277344 17.578125 19.183594 C 17.578125 21.085938 18.054688 22.222656 18.640625 22.222656 C 19.230469 22.222656 19.707031 21.085938 19.707031 19.183594 C 19.707031 17.277344 19.230469 16.144531 18.644531 16.144531 Z M 18.644531 16.144531 "/>
<path style=" stroke:none;fill-rule:nonzero;fill:rgb(100%,100%,100%);fill-opacity:1;" d="M 24.175781 23.804688 L 24.175781 18.691406 C 24.175781 16.894531 23.925781 16.296875 23.46875 16.296875 C 22.992188 16.296875 22.472656 17.363281 22.472656 18.648438 L 22.472656 23.804688 L 21.46875 23.804688 L 21.46875 14.5625 L 22.386719 14.5625 L 22.429688 16.273438 C 22.679688 15.097656 23.242188 14.304688 23.8125 14.304688 C 24.808594 14.304688 25.179688 16.019531 25.179688 18.304688 L 25.179688 23.804688 Z M 24.175781 23.804688 "/>
<path style=" stroke:none;fill-rule:nonzero;fill:rgb(100%,100%,100%);fill-opacity:1;" d="M 28.855469 23.808594 L 28.820312 22.332031 C 28.511719 23.464844 27.957031 24.0625 27.429688 24.0625 C 26.417969 24.0625 25.671875 21.964844 25.671875 19.183594 C 25.671875 16.402344 26.417969 14.304688 27.429688 14.304688 C 27.929688 14.304688 28.441406 14.820312 28.761719 15.824219 L 28.761719 10.96875 L 29.765625 10.96875 L 29.765625 23.808594 Z M 27.742188 16.148438 C 27.15625 16.148438 26.679688 17.28125 26.679688 19.183594 C 26.679688 21.085938 27.152344 22.222656 27.742188 22.222656 C 28.328125 22.222656 28.804688 21.089844 28.804688 19.183594 C 28.804688 17.28125 28.332031 16.148438 27.742188 16.148438 Z M 27.742188 16.148438 "/>
<path style=" stroke:none;fill-rule:nonzero;fill:rgb(100%,100%,100%);fill-opacity:1;" d="M 33.535156 23.808594 L 33.5 22.332031 C 33.1875 23.464844 32.632812 24.066406 32.105469 24.066406 C 31.09375 24.066406 30.351562 21.96875 30.351562 19.183594 C 30.351562 16.402344 31.09375 14.308594 32.105469 14.308594 C 32.632812 14.308594 33.1875 14.910156 33.5 16.042969 L 33.535156 14.566406 L 34.441406 14.566406 L 34.441406 23.808594 Z M 32.417969 16.148438 C 31.832031 16.148438 31.355469 17.28125 31.355469 19.1875 C 31.355469 21.089844 31.832031 22.222656 32.417969 22.222656 C 33.007812 22.222656 33.480469 21.085938 33.480469 19.183594 C 33.480469 17.277344 33.007812 16.148438 32.417969 16.148438 Z M 32.417969 16.148438 "/>
<path style=" stroke:none;fill-rule:nonzero;fill:rgb(100%,100%,100%);fill-opacity:1;" d="M 36.664062 24.109375 C 36.136719 24.097656 35.621094 23.734375 35.167969 23.058594 L 35.332031 21.347656 C 35.636719 21.796875 36.09375 22.375 36.648438 22.375 C 37.042969 22.375 37.320312 22.078125 37.320312 21.304688 C 37.320312 20.644531 37.035156 20.40625 36.527344 20.109375 C 35.609375 19.617188 35.28125 18.417969 35.28125 17.113281 C 35.28125 15.65625 35.738281 14.289062 36.75 14.289062 C 37.363281 14.289062 37.902344 14.953125 38.019531 15.121094 L 37.855469 16.75 C 37.527344 16.261719 37.15625 15.996094 36.773438 15.980469 C 36.367188 15.980469 36.167969 16.320312 36.167969 16.878906 C 36.167969 17.496094 36.429688 17.777344 36.828125 18.011719 C 37.8125 18.523438 38.210938 19.660156 38.210938 20.898438 C 38.210938 22.890625 37.625 24.109375 36.664062 24.109375 Z M 36.664062 24.109375 "/>
<path style=" stroke:none;fill-rule:nonzero;fill:rgb(100%,100%,100%);fill-opacity:1;" d="M 3.675781 8.261719 L 4.851562 8.261719 L 4.851562 14.304688 L 3.675781 14.304688 Z M 3.675781 8.261719 "/>
<path style=" stroke:none;fill-rule:nonzero;fill:rgb(100%,100%,100%);fill-opacity:1;" d="M 3.675781 20.671875 L 4.851562 20.671875 L 4.851562 26.714844 L 3.675781 26.714844 Z M 3.675781 20.671875 "/>
<path style=" stroke:none;fill-rule:nonzero;fill:rgb(100%,79.215688%,0%);fill-opacity:1;" d="M 3.675781 16.066406 L 4.851562 16.066406 L 4.851562 18.917969 L 3.675781 18.917969 Z M 3.675781 16.066406 "/>
<path style=" stroke:none;fill-rule:nonzero;fill:rgb(100%,100%,100%);fill-opacity:1;" d="M 1.789062 13.230469 L 2.964844 13.230469 L 2.964844 33.3125 L 1.789062 33.3125 Z M 1.789062 13.230469 "/>
<path style=" stroke:none;fill-rule:nonzero;fill:rgb(100%,100%,100%);fill-opacity:1;" d="M 5.527344 25.65625 L 6.703125 25.65625 L 6.703125 31.695312 L 5.527344 31.695312 Z M 5.527344 25.65625 "/>
<path style=" stroke:none;fill-rule:nonzero;fill:rgb(100%,100%,100%);fill-opacity:1;" d="M 5.527344 13.238281 L 6.703125 13.238281 L 6.703125 19.277344 L 5.527344 19.277344 Z M 5.527344 13.238281 "/>
<path style=" stroke:none;fill-rule:nonzero;fill:rgb(90.588236%,1.568628%,53.333336%);fill-opacity:1;" d="M 5.527344 21.042969 L 6.703125 21.042969 L 6.703125 23.890625 L 5.527344 23.890625 Z M 5.527344 21.042969 "/>
<path style=" stroke:none;fill-rule:nonzero;fill:rgb(100%,100%,100%);fill-opacity:1;" d="M 7.375 6.6875 L 8.550781 6.6875 L 8.550781 26.769531 L 7.375 26.769531 Z M 7.375 6.6875 "/>
</g>
</svg>
