<?xml version="1.0" encoding="UTF-8"?>
<svg xmlns="http://www.w3.org/2000/svg" xmlns:xlink="http://www.w3.org/1999/xlink" width="100px" height="60px" viewBox="0 0 100 60" version="1.1">
<g id="surface1">
<path style=" stroke:none;fill-rule:nonzero;fill:rgb(93.333334%,29.803923%,17.254902%);fill-opacity:1;" d="M 12.863281 13.675781 L 11.511719 16.972656 C 13.726562 22.363281 13.726562 31.046875 11.511719 36.339844 C 9.296875 41.730469 5.730469 41.730469 3.558594 36.339844 C 1.34375 30.949219 1.34375 22.261719 3.558594 16.972656 L 7.0625 8.4375 L 7.554688 7.238281 L 7.554688 0.796875 L 2.265625 13.675781 C -0.683594 20.863281 -0.683594 32.445312 2.265625 39.632812 C 5.21875 46.820312 9.972656 46.820312 12.863281 39.632812 C 15.816406 32.394531 15.816406 20.863281 12.863281 13.675781 Z M 12.863281 13.675781 "/>
<path style=" stroke:none;fill-rule:nonzero;fill:rgb(93.333334%,29.803923%,17.254902%);fill-opacity:1;" d="M 11.203125 10.484375 C 11.203125 9.160156 10.765625 8.085938 10.21875 8.085938 C 9.675781 8.085938 9.234375 9.160156 9.234375 10.484375 C 9.234375 11.804688 9.675781 12.878906 10.21875 12.878906 C 10.765625 12.878906 11.203125 11.804688 11.203125 10.484375 Z M 11.203125 10.484375 "/>
<path style=" stroke:none;fill-rule:nonzero;fill:rgb(100%,100%,100%);fill-opacity:1;" d="M 26.539062 30.148438 L 24.261719 30.148438 L 24.261719 44.375 L 22.539062 44.375 L 22.539062 3.894531 C 22.539062 3.894531 26.476562 3.894531 26.722656 3.894531 C 31.089844 3.894531 33.179688 9.132812 33.179688 16.472656 C 33.242188 25.507812 30.660156 30.148438 26.539062 30.148438 Z M 26.722656 7.9375 C 26.539062 7.9375 24.324219 7.9375 24.324219 7.9375 L 24.324219 26.554688 L 26.660156 26.40625 C 29.796875 26.257812 31.519531 23.261719 31.519531 16.972656 C 31.519531 11.082031 29.796875 7.9375 26.722656 7.9375 Z M 26.722656 7.9375 "/>
<path style=" stroke:none;fill-rule:nonzero;fill:rgb(100%,100%,100%);fill-opacity:1;" d="M 40.886719 44.226562 L 39.902344 50.664062 C 38.796875 57.855469 37.628906 59.949219 35.96875 59.949219 C 35.046875 59.949219 34.367188 59.351562 33.632812 58.601562 L 34.121094 54.859375 C 34.675781 55.605469 35.292969 56.207031 35.96875 56.207031 C 36.890625 56.207031 37.566406 55.007812 38.488281 49.316406 L 39.289062 44.078125 L 34.554688 14.824219 L 36.335938 14.824219 L 40.148438 39.285156 L 43.902344 14.824219 L 45.625 14.824219 Z M 40.886719 44.226562 "/>
<path style=" stroke:none;fill-rule:nonzero;fill:rgb(100%,100%,100%);fill-opacity:1;" d="M 51.238281 7.9375 L 51.238281 44.527344 L 49.519531 44.527344 L 49.519531 7.9375 L 43.675781 7.9375 L 43.675781 4.042969 L 57.042969 4.042969 L 57.042969 7.9375 C 57.019531 7.9375 51.238281 7.9375 51.238281 7.9375 Z M 51.238281 7.9375 "/>
<path style=" stroke:none;fill-rule:nonzero;fill:rgb(100%,100%,100%);fill-opacity:1;" d="M 61.898438 45.273438 C 58.519531 45.273438 56.058594 39.132812 56.058594 29.699219 C 56.058594 20.265625 58.640625 13.976562 62.085938 13.976562 C 65.527344 13.976562 67.925781 20.117188 67.925781 29.550781 C 67.867188 38.984375 65.28125 45.273438 61.898438 45.273438 Z M 61.960938 17.71875 C 59.378906 17.71875 57.71875 22.664062 57.71875 29.699219 C 57.71875 36.886719 59.441406 41.832031 62.023438 41.832031 C 64.605469 41.832031 66.265625 36.886719 66.265625 29.851562 C 66.265625 22.511719 64.542969 17.71875 61.960938 17.71875 Z M 61.960938 17.71875 "/>
<path style=" stroke:none;fill-rule:nonzero;fill:rgb(100%,100%,100%);fill-opacity:1;" d="M 72.046875 44.527344 L 70.386719 44.527344 L 70.386719 14.824219 L 72.046875 13.925781 L 72.046875 20.214844 C 72.847656 16.472656 74.015625 13.925781 75.613281 13.925781 C 76.414062 13.925781 77.152344 14.527344 77.765625 15.273438 L 77.335938 19.019531 C 76.78125 18.269531 76.167969 17.671875 75.492188 17.671875 C 74.199219 17.671875 73.03125 20.066406 72.046875 25.308594 Z M 72.046875 44.527344 "/>
<path style=" stroke:none;fill-rule:nonzero;fill:rgb(100%,100%,100%);fill-opacity:1;" d="M 84.246094 45.273438 C 80.554688 45.273438 78.28125 38.835938 78.28125 29.699219 C 78.28125 20.414062 80.800781 13.976562 84.246094 13.976562 C 85.722656 13.976562 87.011719 14.875 88.058594 16.523438 L 87.628906 20.117188 C 86.703125 18.617188 85.535156 17.71875 84.246094 17.71875 C 81.601562 17.71875 80 22.511719 80 29.550781 C 80 36.738281 81.722656 41.53125 84.304688 41.53125 C 85.535156 41.53125 86.765625 40.632812 87.6875 39.132812 L 88.058594 42.878906 C 86.949219 44.375 85.660156 45.273438 84.246094 45.273438 Z M 84.246094 45.273438 "/>
<path style=" stroke:none;fill-rule:nonzero;fill:rgb(100%,100%,100%);fill-opacity:1;" d="M 98.226562 44.527344 L 98.226562 25.308594 C 98.226562 20.066406 97.363281 17.820312 95.644531 17.820312 C 94.226562 17.820312 92.875 19.617188 91.890625 22.011719 L 91.890625 44.527344 L 90.230469 44.527344 L 90.230469 0.898438 L 91.890625 0 C 91.890625 0 91.890625 18.617188 91.890625 18.769531 C 93.183594 15.625 94.78125 14.125 96.132812 14.125 C 98.472656 14.125 99.949219 17.871094 99.949219 24.308594 L 99.949219 44.574219 L 98.226562 44.574219 Z M 98.226562 44.527344 "/>
</g>
</svg>
