<?xml version="1.0" encoding="UTF-8"?>
<svg xmlns="http://www.w3.org/2000/svg" xmlns:xlink="http://www.w3.org/1999/xlink" width="100px" height="60px" viewBox="0 0 100 60" version="1.1">
<g id="surface1">
<path style=" stroke:none;fill-rule:nonzero;fill:rgb(0%,0%,0%);fill-opacity:1;" d="M 49.339844 9.867188 C 31.242188 9.867188 16.515625 18.707031 16.515625 29.5625 C 16.515625 40.417969 31.25 49.257812 49.339844 49.257812 C 67.429688 49.257812 82.167969 40.417969 82.167969 29.5625 C 82.167969 18.707031 67.429688 9.867188 49.339844 9.867188 Z M 49.292969 11.617188 C 50.457031 11.636719 51.390625 12.210938 51.390625 12.914062 C 51.390625 13.628906 50.421875 14.207031 49.230469 14.207031 C 48.035156 14.207031 47.070312 13.628906 47.070312 12.914062 C 47.070312 12.5625 47.304688 12.226562 47.722656 11.984375 C 48.144531 11.738281 48.707031 11.605469 49.292969 11.617188 Z M 54.234375 13.75 C 61.910156 14.613281 68.5625 17.457031 72.429688 21.523438 L 69.882812 24.976562 C 69.445312 25.570312 69.894531 26.269531 70.882812 26.539062 L 75.785156 27.839844 C 75.9375 28.761719 75.957031 29.6875 75.839844 30.609375 L 73.109375 30.609375 C 72.839844 30.609375 72.730469 30.714844 72.730469 30.875 L 72.730469 31.625 C 72.730469 33.390625 71.070312 33.777344 69.609375 33.875 C 68.222656 33.972656 66.6875 33.523438 66.492188 33.015625 C 65.671875 30.253906 64.3125 29.667969 62.160156 28.644531 C 64.832031 27.628906 67.609375 26.125 67.609375 24.117188 C 67.609375 21.945312 65.132812 20.578125 63.445312 19.910156 C 61.070312 18.972656 58.445312 18.785156 57.734375 18.785156 L 29.542969 18.785156 C 33.441406 16.171875 38.667969 14.402344 44.410156 13.75 L 47.734375 15.839844 C 48.484375 16.3125 49.730469 16.332031 50.515625 15.878906 Z M 23.542969 23.339844 C 24.710938 23.363281 25.640625 23.9375 25.640625 24.636719 C 25.640625 25.351562 24.671875 25.933594 23.480469 25.933594 C 22.285156 25.933594 21.320312 25.351562 21.320312 24.636719 C 21.320312 24.289062 21.554688 23.953125 21.972656 23.707031 C 22.394531 23.464844 22.957031 23.332031 23.542969 23.339844 Z M 75.035156 23.398438 C 76.203125 23.421875 77.132812 23.996094 77.132812 24.695312 C 77.132812 25.410156 76.164062 25.992188 74.972656 25.992188 C 73.78125 25.992188 72.8125 25.410156 72.8125 24.695312 C 72.8125 24.34375 73.046875 24.011719 73.46875 23.765625 C 73.886719 23.523438 74.453125 23.390625 75.035156 23.398438 Z M 27.609375 23.609375 L 31.375 23.609375 L 31.375 33.792969 L 23.777344 33.792969 C 22.839844 31.816406 22.546875 29.746094 22.917969 27.703125 L 27.570312 26.460938 C 28.5625 26.195312 29.015625 25.5 28.570312 24.902344 Z M 43.320312 23.714844 L 52.285156 23.714844 C 52.75 23.714844 55.554688 24.039062 55.554688 25.300781 C 55.554688 26.347656 53.402344 26.722656 51.632812 26.722656 L 43.3125 26.722656 Z M 43.320312 31.035156 L 50.1875 31.035156 C 50.8125 31.035156 53.542969 31.140625 54.410156 33.234375 C 54.679688 33.875 55.285156 35.964844 55.695312 36.636719 C 56.105469 37.386719 57.765625 38.886719 59.535156 38.886719 L 70.742188 38.886719 C 69.992188 39.492188 69.171875 40.0625 68.285156 40.597656 L 63.722656 40.007812 C 62.660156 39.871094 61.609375 40.277344 61.382812 40.917969 L 60.296875 43.949219 C 53.25 45.867188 45.15625 45.84375 38.140625 43.886719 L 37.054688 40.855469 C 36.828125 40.214844 35.785156 39.808594 34.722656 39.945312 L 30.257812 40.519531 C 29.429688 40.007812 28.65625 39.460938 27.953125 38.886719 L 49.667969 38.886719 C 49.910156 38.886719 50.078125 38.863281 50.078125 38.726562 L 50.078125 34.117188 C 50.078125 33.984375 49.910156 33.953125 49.667969 33.953125 L 43.3125 33.953125 Z M 33.296875 41.585938 C 34.46875 41.609375 35.394531 42.183594 35.394531 42.882812 C 35.394531 43.597656 34.429688 44.179688 33.234375 44.179688 C 32.042969 44.179688 31.078125 43.597656 31.078125 42.882812 C 31.074219 42.53125 31.3125 42.199219 31.730469 41.953125 C 32.148438 41.710938 32.714844 41.578125 33.296875 41.585938 Z M 65.277344 41.644531 C 66.445312 41.667969 67.375 42.242188 67.375 42.941406 C 67.375 43.65625 66.40625 44.238281 65.214844 44.238281 C 64.023438 44.238281 63.054688 43.65625 63.054688 42.941406 C 63.054688 42.589844 63.292969 42.257812 63.710938 42.011719 C 64.128906 41.769531 64.695312 41.636719 65.277344 41.644531 Z M 65.277344 41.644531 "/>
<path style="fill-rule:evenodd;fill:rgb(0%,0%,0%);fill-opacity:1;stroke-width:3;stroke-linecap:round;stroke-linejoin:round;stroke:rgb(0%,0%,0%);stroke-opacity:1;stroke-miterlimit:4;" d="M 115.678125 70.95 C 115.678125 95.596875 95.698125 115.584375 71.049375 115.584375 C 46.400625 115.584375 26.420625 95.596875 26.420625 70.95 C 26.420625 46.303125 46.400625 26.315625 71.049375 26.315625 C 95.698125 26.315625 115.678125 46.303125 115.678125 70.95 Z M 114.84 66.6375 L 121.798125 70.95 L 114.84 75.2625 L 120.819375 80.85 L 113.158125 83.71875 L 117.939375 90.365625 L 109.850625 91.6875 L 113.248125 99.15 L 105.058125 98.859375 L 106.9425 106.8375 L 98.960625 104.9625 L 99.2475 113.146875 L 91.78875 109.753125 L 90.4725 117.84375 L 83.818125 113.0625 L 80.949375 120.721875 L 75.358125 114.740625 L 71.049375 121.696875 L 66.740625 114.740625 L 61.149375 120.721875 L 58.280625 113.0625 L 51.631875 117.84375 L 50.31 109.753125 L 42.85125 113.146875 L 43.138125 104.9625 L 35.161875 106.8375 L 37.040625 98.859375 L 28.850625 99.15 L 32.248125 91.6875 L 24.159375 90.365625 L 28.940625 83.71875 L 21.279375 80.85 L 27.25875 75.2625 L 20.300625 70.95 L 27.25875 66.6375 L 21.279375 61.05 L 28.940625 58.18125 L 24.159375 51.534375 L 32.248125 50.2125 L 28.850625 42.75 L 37.040625 43.040625 L 35.161875 35.0625 L 43.138125 36.9375 L 42.85125 28.753125 L 50.31 32.146875 L 51.631875 24.05625 L 58.280625 28.8375 L 61.149375 21.178125 L 66.740625 27.159375 L 71.049375 20.203125 L 75.358125 27.159375 L 80.949375 21.178125 L 83.818125 28.8375 L 90.4725 24.05625 L 91.78875 32.146875 L 99.2475 28.753125 L 98.960625 36.9375 L 106.9425 35.0625 L 105.058125 43.040625 L 113.248125 42.75 L 109.850625 50.2125 L 117.939375 51.534375 L 113.158125 58.18125 L 120.819375 61.05 Z M 114.84 66.6375 " transform="matrix(0.694444,0,0,0.416667,0,0)"/>
</g>
</svg>
