<?xml version="1.0" encoding="UTF-8"?>
<svg xmlns="http://www.w3.org/2000/svg" xmlns:xlink="http://www.w3.org/1999/xlink" width="100px" height="60px" viewBox="0 0 100 60" version="1.1">
<defs>
<clipPath id="clip1">
  <path d="M 8 4 L 17 4 L 17 54 L 8 54 Z M 8 4 "/>
</clipPath>
<clipPath id="clip2">
  <path d="M 16.609375 16.5 L 8.742188 4.5 L 8.742188 53.8125 L 11.886719 48.9375 L 11.886719 35.0625 L 14.265625 38.71875 L 14.230469 29.25 L 11.886719 25.59375 L 11.886719 20.0625 L 16.609375 27.46875 Z M 16.609375 16.5 "/>
</clipPath>
<linearGradient id="linear0" gradientUnits="userSpaceOnUse" x1="-1.6" y1="335.049988" x2="53.599998" y2="335.049988" gradientTransform="matrix(0.34965,0,0,0.9375,0,-285)">
<stop offset="0" style="stop-color:rgb(100%,43.529412%,0%);stop-opacity:1;"/>
<stop offset="1" style="stop-color:rgb(100%,65.882353%,0%);stop-opacity:1;"/>
</linearGradient>
<clipPath id="clip3">
  <path d="M 0 4 L 9 4 L 9 54 L 0 54 Z M 0 4 "/>
</clipPath>
<clipPath id="clip4">
  <path d="M 0.175781 16.5 L 8.042969 4.5 L 8.042969 53.8125 L 4.894531 48.9375 L 4.894531 20.0625 L 0.175781 27.46875 Z M 0.175781 16.5 "/>
</clipPath>
<linearGradient id="linear1" gradientUnits="userSpaceOnUse" x1="-1.9" y1="335.049988" x2="53.299999" y2="335.049988" gradientTransform="matrix(0.34965,0,0,0.9375,0,-285)">
<stop offset="0" style="stop-color:rgb(100%,43.529412%,0%);stop-opacity:1;"/>
<stop offset="1" style="stop-color:rgb(100%,65.882353%,0%);stop-opacity:1;"/>
</linearGradient>
</defs>
<g id="surface1">
<g clip-path="url(#clip1)" clip-rule="nonzero">
<g clip-path="url(#clip2)" clip-rule="nonzero">
<path style=" stroke:none;fill-rule:nonzero;fill:url(#linear0);" d="M -0.558594 4.3125 L 18.742188 4.3125 L 18.742188 53.90625 L -0.558594 53.90625 Z M -0.558594 4.3125 "/>
</g>
</g>
<g clip-path="url(#clip3)" clip-rule="nonzero">
<g clip-path="url(#clip4)" clip-rule="nonzero">
<path style=" stroke:none;fill-rule:nonzero;fill:url(#linear1);" d="M -0.664062 4.3125 L 18.636719 4.3125 L 18.636719 53.90625 L -0.664062 53.90625 Z M -0.664062 4.3125 "/>
</g>
</g>
<path style=" stroke:none;fill-rule:nonzero;fill:rgb(25.882354%,31.37255%,40.000001%);fill-opacity:1;" d="M 30.839844 19.78125 L 27.34375 19.78125 L 27.34375 45.75 L 25.382812 45.75 L 25.382812 19.78125 L 21.886719 19.78125 L 21.886719 15.5625 L 30.839844 15.5625 Z M 30.839844 19.78125 "/>
<path style=" stroke:none;fill-rule:nonzero;fill:rgb(25.882354%,31.37255%,40.000001%);fill-opacity:1;" d="M 33.183594 46.125 C 31.992188 46.125 31.015625 45.09375 30.28125 43.125 C 29.546875 41.15625 29.160156 38.4375 29.160156 35.0625 L 29.160156 34.40625 C 29.160156 32.34375 29.300781 30.28125 29.648438 28.40625 C 29.964844 26.71875 30.417969 25.3125 31.015625 24.28125 C 31.609375 23.25 32.273438 22.78125 32.972656 22.78125 C 34.125 22.78125 35 23.71875 35.628906 25.6875 C 36.257812 27.65625 36.574219 30.375 36.574219 33.9375 L 36.574219 36 L 31.082031 36 C 31.117188 37.6875 31.363281 39.1875 31.785156 40.40625 C 32.203125 41.53125 32.726562 42.09375 33.320312 42 C 34.160156 42.09375 34.929688 40.96875 35.417969 39.1875 L 36.433594 41.8125 C 36.082031 43.125 35.628906 44.25 35.105469 44.90625 C 34.476562 45.84375 33.847656 46.21875 33.183594 46.125 Z M 32.972656 26.90625 C 32.484375 26.8125 32.027344 27.375 31.714844 28.3125 C 31.363281 29.4375 31.152344 30.84375 31.117188 32.34375 L 34.71875 32.34375 L 34.71875 31.96875 C 34.683594 30.28125 34.511719 28.96875 34.230469 28.125 C 33.882812 27.375 33.425781 26.8125 32.972656 26.90625 Z M 39.753906 23.25 L 39.824219 25.875 C 40.417969 23.90625 41.328125 22.78125 42.273438 22.875 C 44.019531 22.875 44.894531 25.59375 44.929688 30.9375 L 44.929688 45.75 L 43.042969 45.75 L 43.042969 31.21875 C 43.042969 29.8125 42.9375 28.78125 42.691406 28.03125 C 42.449219 27.375 42.097656 27 41.574219 27 C 40.839844 26.90625 40.175781 28.03125 39.859375 29.71875 L 39.859375 45.65625 L 37.972656 45.65625 L 37.972656 23.15625 Z M 51.015625 39.65625 C 51.015625 38.8125 50.875 38.0625 50.59375 37.59375 C 50.175781 36.9375 49.683594 36.5625 49.230469 36.375 C 48.671875 36.09375 48.148438 35.625 47.621094 34.96875 C 46.679688 33.75 46.222656 31.96875 46.222656 29.71875 C 46.222656 27.84375 46.574219 25.96875 47.132812 24.84375 C 47.726562 23.53125 48.53125 22.875 49.441406 22.875 C 50.453125 22.875 51.257812 23.53125 51.851562 24.84375 C 52.449219 26.0625 52.796875 28.03125 52.761719 30 L 50.875 30 C 50.875 29.0625 50.734375 28.21875 50.453125 27.5625 C 50.140625 26.90625 49.789062 26.53125 49.371094 26.625 C 49.019531 26.625 48.671875 26.8125 48.355469 27.375 C 48.113281 27.84375 47.972656 28.59375 47.972656 29.4375 C 47.972656 30.1875 48.113281 30.84375 48.320312 31.21875 C 48.566406 31.6875 49.054688 32.0625 49.789062 32.53125 C 50.382812 32.8125 50.980469 33.375 51.539062 34.125 C 51.921875 34.59375 52.238281 35.34375 52.484375 36.28125 C 52.691406 37.21875 52.796875 38.25 52.796875 39.375 C 52.796875 41.34375 52.449219 43.125 51.851562 44.25 C 51.222656 45.46875 50.417969 46.125 49.40625 46.125 C 48.777344 46.125 48.148438 45.84375 47.585938 45.09375 C 47.097656 44.53125 46.644531 43.59375 46.328125 42.375 C 46.050781 41.25 45.875 39.9375 45.875 38.625 L 47.691406 38.625 C 47.691406 39.65625 47.867188 40.6875 48.183594 41.34375 C 48.53125 42 48.984375 42.375 49.40625 42.28125 C 49.894531 42.28125 50.28125 42 50.523438 41.53125 C 50.875 41.15625 51.015625 40.40625 51.015625 39.65625 Z M 53.847656 34.3125 C 53.847656 32.25 53.984375 30.1875 54.335938 28.40625 C 54.648438 26.71875 55.105469 25.3125 55.699219 24.375 C 56.328125 23.4375 57.027344 22.875 57.726562 22.96875 C 58.847656 22.96875 59.789062 23.90625 60.488281 25.875 C 61.1875 27.84375 61.574219 30.375 61.644531 33.65625 L 61.644531 34.875 C 61.644531 36.9375 61.503906 38.90625 61.152344 40.78125 C 60.875 42.46875 60.382812 43.875 59.789062 44.8125 C 59.160156 45.75 58.460938 46.3125 57.726562 46.21875 C 56.539062 46.21875 55.59375 45.1875 54.894531 43.03125 C 54.195312 40.96875 53.847656 38.15625 53.8125 34.59375 Z M 55.699219 34.78125 C 55.699219 37.125 55.875 38.90625 56.222656 40.21875 C 56.851562 42.375 58.007812 42.84375 58.847656 41.15625 C 58.984375 40.875 59.089844 40.59375 59.195312 40.21875 C 59.546875 38.90625 59.71875 36.9375 59.71875 34.40625 C 59.71875 32.15625 59.546875 30.375 59.160156 28.96875 C 58.566406 26.8125 57.414062 26.34375 56.574219 27.9375 C 56.433594 28.21875 56.292969 28.59375 56.1875 28.875 C 55.910156 30.1875 55.699219 32.15625 55.699219 34.78125 Z M 67.273438 27.9375 C 67.027344 27.84375 66.75 27.75 66.503906 27.75 C 65.628906 27.75 65.070312 28.59375 64.753906 30.375 L 64.753906 45.75 L 62.867188 45.75 L 62.867188 23.25 L 64.648438 23.25 L 64.683594 25.78125 C 65.140625 23.8125 65.769531 22.875 66.574219 22.875 C 66.785156 22.875 67.027344 22.96875 67.238281 23.15625 Z M 75.140625 32.90625 L 70.59375 32.90625 L 70.59375 45.75 L 68.636719 45.75 L 68.636719 15.5625 L 75.804688 15.5625 L 75.804688 19.78125 L 70.59375 19.78125 L 70.59375 28.78125 L 75.140625 28.78125 Z M 78.882812 45.75 L 76.992188 45.75 L 76.992188 15.46875 L 78.882812 15.46875 Z M 80.246094 34.3125 C 80.246094 32.25 80.382812 30.1875 80.734375 28.40625 C 81.050781 26.71875 81.503906 25.3125 82.097656 24.375 C 82.726562 23.4375 83.425781 22.875 84.125 22.96875 C 85.246094 22.96875 86.1875 23.90625 86.886719 25.875 C 87.585938 27.84375 87.972656 30.375 88.042969 33.65625 L 88.042969 34.875 C 88.042969 36.9375 87.902344 38.90625 87.585938 40.78125 C 87.308594 42.46875 86.816406 43.875 86.222656 44.8125 C 85.59375 45.75 84.894531 46.3125 84.160156 46.21875 C 82.972656 46.21875 82.027344 45.1875 81.328125 43.03125 C 80.628906 40.96875 80.246094 38.15625 80.246094 34.59375 Z M 82.132812 34.78125 C 82.132812 37.125 82.308594 38.90625 82.65625 40.21875 C 83.007812 41.53125 83.566406 42.28125 84.160156 42.1875 C 84.753906 42.28125 85.316406 41.53125 85.628906 40.21875 C 85.980469 38.90625 86.152344 36.9375 86.152344 34.40625 C 86.152344 32.15625 85.980469 30.375 85.59375 28.96875 C 85 26.8125 83.847656 26.34375 83.007812 27.9375 C 82.867188 28.21875 82.726562 28.59375 82.621094 28.875 C 82.308594 30.1875 82.132812 32.15625 82.132812 34.78125 Z M 96.539062 38.8125 L 97.867188 23.34375 L 99.683594 23.34375 L 97.414062 45.84375 L 95.875 45.84375 L 94.089844 30.375 L 92.308594 45.84375 L 90.769531 45.84375 L 88.460938 23.34375 L 90.316406 23.34375 L 91.679688 38.71875 L 93.390625 23.34375 L 94.824219 23.34375 Z M 96.539062 38.8125 "/>
</g>
</svg>
